<?xml version="1.0" standalone="no"?>
<!DOCTYPE svg PUBLIC "-//W3C//DTD SVG 20010904//EN"
 "http://www.w3.org/TR/2001/REC-SVG-20010904/DTD/svg10.dtd">
<svg version="1.0" xmlns="http://www.w3.org/2000/svg"
 width="5000.000000pt" height="5000.000000pt" viewBox="0 0 5000.000000 5000.000000"
 preserveAspectRatio="xMidYMid meet">

<g transform="translate(0.000000,5000.000000) scale(0.100000,-0.100000)"
fill="#000000" stroke="none">
<path d="M35565 45223 c-114 -10 -344 -47 -452 -74 -504 -123 -950 -391 -1270
-763 -353 -411 -580 -915 -698 -1555 -14 -74 -25 -145 -25 -158 l0 -23 489 0
488 0 17 109 c22 141 65 318 111 451 49 144 161 366 242 480 85 120 262 298
372 375 283 197 623 295 1029 295 918 0 1498 -433 1633 -1220 26 -154 35 -387
20 -520 -50 -425 -295 -951 -688 -1475 -49 -66 -880 -1154 -1846 -2419 l-1757
-2299 0 -378 0 -379 2670 0 2670 0 0 435 0 435 -2075 0 c-1141 0 -2075 2
-2075 5 0 3 406 528 903 1168 2457 3162 2416 3109 2596 3397 291 466 483 908
560 1286 34 168 44 295 38 484 -11 315 -54 569 -137 823 -153 463 -430 832
-819 1090 -130 86 -364 202 -514 255 -239 85 -554 149 -841 172 -118 9 -546
11 -641 3z"/>
<path d="M19575 39141 c-104 -4 -248 -13 -320 -19 -71 -7 -186 -16 -255 -22
-165 -12 -310 -27 -445 -45 -60 -8 -146 -20 -190 -25 -160 -21 -281 -39 -335
-49 -30 -6 -109 -20 -175 -31 -110 -18 -163 -29 -315 -61 -30 -6 -84 -17 -120
-24 -36 -8 -85 -19 -110 -25 -25 -6 -83 -20 -130 -31 -95 -22 -180 -43 -255
-64 -27 -8 -61 -17 -75 -20 -14 -3 -50 -13 -80 -21 -30 -9 -80 -23 -110 -31
-66 -18 -172 -51 -220 -68 -19 -7 -69 -22 -110 -35 -41 -12 -90 -28 -108 -36
-18 -8 -38 -14 -45 -14 -7 0 -24 -6 -39 -14 -15 -8 -41 -17 -58 -21 -17 -4
-43 -13 -58 -21 -15 -8 -34 -14 -42 -14 -8 0 -33 -9 -55 -20 -22 -11 -47 -19
-55 -20 -9 0 -20 -4 -25 -8 -6 -4 -37 -18 -70 -31 -33 -12 -76 -29 -95 -36
-32 -13 -300 -125 -345 -145 -34 -15 -156 -71 -245 -112 -92 -43 -422 -207
-510 -255 -100 -54 -475 -275 -499 -294 -13 -11 -28 -19 -33 -19 -5 0 -21 -8
-36 -19 -41 -29 -266 -175 -277 -181 -16 -8 -84 -54 -160 -109 -38 -27 -88
-63 -110 -78 -108 -76 -245 -178 -279 -208 -6 -6 -27 -22 -46 -35 -19 -13 -69
-52 -110 -87 -41 -34 -111 -92 -155 -128 -77 -64 -159 -133 -195 -165 -95 -84
-393 -363 -470 -441 -87 -89 -236 -245 -299 -314 -36 -38 -87 -95 -115 -125
-28 -31 -71 -80 -96 -110 -25 -30 -61 -73 -80 -95 -114 -131 -194 -231 -349
-440 -61 -82 -114 -154 -119 -160 -45 -56 -275 -395 -352 -520 -17 -27 -55
-88 -85 -135 -183 -290 -343 -581 -551 -1000 -63 -129 -120 -244 -124 -255 -5
-11 -24 -54 -43 -95 -19 -41 -53 -120 -76 -175 -23 -55 -46 -109 -51 -120 -5
-11 -21 -49 -35 -85 -14 -36 -30 -74 -35 -85 -30 -67 -50 -119 -50 -129 -1 -6
-9 -29 -20 -51 -11 -22 -19 -44 -20 -50 0 -5 -13 -41 -29 -80 -15 -38 -56
-153 -90 -255 -34 -102 -66 -194 -71 -205 -4 -11 -18 -54 -30 -95 -12 -41 -28
-95 -35 -120 -59 -196 -81 -272 -105 -365 -12 -44 -27 -100 -35 -125 -7 -25
-23 -85 -35 -135 -12 -49 -27 -115 -35 -145 -7 -30 -19 -77 -25 -105 -6 -27
-20 -90 -31 -140 -12 -49 -25 -116 -30 -148 -5 -33 -11 -63 -14 -68 -6 -8 -19
-76 -45 -219 -6 -36 -16 -90 -22 -120 -12 -64 -32 -183 -48 -290 -6 -41 -17
-115 -25 -165 -8 -49 -17 -112 -20 -140 -3 -27 -12 -97 -20 -155 -31 -231 -46
-384 -74 -745 -6 -77 -19 -234 -29 -350 -16 -196 -17 -574 -17 -5505 0 -4931
1 -5309 17 -5505 10 -115 23 -273 29 -350 20 -265 37 -450 48 -530 5 -44 15
-123 22 -175 16 -140 36 -286 48 -365 43 -276 61 -388 93 -555 5 -30 16 -88
24 -128 7 -40 16 -76 19 -81 3 -5 9 -35 14 -68 5 -32 19 -101 31 -153 12 -52
27 -122 34 -155 7 -33 18 -78 24 -100 6 -22 20 -80 32 -130 12 -49 28 -110 35
-135 8 -25 23 -81 35 -125 22 -83 35 -131 71 -250 11 -38 27 -92 35 -120 31
-111 56 -191 65 -207 5 -10 13 -34 18 -55 15 -57 105 -318 140 -403 17 -41 31
-79 31 -85 1 -5 9 -28 20 -50 11 -22 19 -45 20 -51 0 -10 20 -62 50 -129 5
-11 21 -49 35 -85 14 -36 30 -74 35 -85 5 -11 28 -65 51 -120 36 -88 57 -134
114 -260 7 -16 65 -136 129 -265 166 -337 260 -512 403 -755 210 -355 407
-658 597 -917 39 -53 78 -106 86 -118 8 -13 35 -48 60 -79 24 -31 48 -60 52
-66 10 -14 126 -160 163 -205 297 -369 797 -884 1179 -1215 38 -33 88 -76 110
-95 99 -86 220 -184 331 -268 66 -50 125 -95 130 -99 19 -16 251 -180 335
-238 121 -83 298 -202 328 -220 181 -109 538 -318 562 -329 8 -3 35 -18 60
-32 67 -39 452 -233 550 -278 165 -75 206 -94 305 -135 55 -23 109 -46 120
-51 26 -11 61 -25 370 -145 84 -33 167 -62 215 -76 19 -5 44 -14 55 -19 21
-10 94 -34 215 -70 41 -12 91 -28 110 -35 55 -20 228 -70 370 -106 47 -12 104
-28 128 -36 23 -7 51 -13 61 -13 10 0 41 -6 67 -14 66 -20 279 -68 464 -105
52 -11 120 -24 150 -31 30 -6 96 -18 145 -26 50 -7 117 -18 150 -24 204 -35
359 -56 710 -95 599 -66 1498 -96 2020 -66 563 32 706 43 880 66 61 8 148 19
195 24 131 15 237 31 475 71 33 6 98 17 145 25 90 14 141 25 282 56 48 10 94
19 104 19 9 0 40 7 68 15 28 8 92 23 141 35 50 11 116 27 148 35 148 38 187
49 252 66 163 45 291 83 410 122 50 16 104 33 120 38 17 4 82 26 145 49 63 23
129 45 145 50 17 6 39 14 50 19 41 18 131 51 138 51 5 0 27 8 50 18 42 18 70
30 177 72 60 23 73 28 140 58 93 41 117 51 179 77 123 51 610 289 791 386 41
23 100 54 130 70 62 34 74 41 260 150 74 44 162 98 195 119 33 22 67 43 75 47
8 4 50 31 93 60 43 29 80 53 82 53 6 0 259 172 342 233 39 29 107 77 150 108
76 54 373 286 383 298 3 4 28 24 55 46 28 22 88 73 135 114 47 40 99 85 115
99 252 214 703 661 950 942 27 30 54 60 59 66 6 6 34 37 61 70 28 32 66 77 85
99 20 22 53 63 75 90 22 28 50 62 63 76 30 35 305 392 362 470 63 87 115 161
177 252 29 43 62 90 72 105 54 79 215 328 257 400 27 46 56 95 64 107 38 60
193 328 231 400 50 96 318 629 337 671 7 16 56 128 108 249 53 121 102 234
110 252 8 17 14 37 14 45 0 7 7 22 15 32 8 11 15 26 15 33 0 8 8 33 18 56 50
114 132 342 208 577 31 96 62 191 69 210 7 19 22 69 35 110 12 41 28 93 35
115 12 39 39 138 71 260 9 33 22 83 30 110 27 101 80 316 114 470 7 28 16 68
22 90 22 91 26 120 17 142 l-9 23 -1488 0 c-1488 0 -1731 -3 -1737 -24 -17
-60 -50 -169 -60 -201 -7 -22 -23 -74 -35 -115 -45 -149 -63 -205 -71 -215 -4
-5 -12 -26 -17 -45 -13 -42 -42 -124 -72 -200 -12 -30 -27 -73 -34 -95 -12
-34 -53 -136 -86 -210 -5 -11 -36 -83 -69 -160 -32 -77 -84 -189 -114 -250
-30 -60 -78 -157 -106 -215 -29 -58 -56 -112 -61 -120 -24 -40 -107 -188 -118
-210 -6 -14 -16 -32 -21 -40 -5 -8 -33 -55 -62 -105 -29 -49 -68 -111 -86
-137 -18 -26 -33 -50 -33 -53 0 -2 -25 -41 -55 -85 -30 -44 -55 -83 -55 -86 0
-5 -40 -64 -50 -74 -3 -3 -18 -23 -33 -45 -15 -22 -53 -74 -83 -115 -30 -41
-66 -93 -81 -115 -23 -35 -129 -172 -143 -185 -3 -3 -35 -41 -70 -85 -161
-201 -292 -345 -560 -618 -387 -395 -771 -714 -1292 -1074 -43 -29 -80 -53
-83 -53 -3 0 -18 -9 -33 -19 -15 -10 -61 -40 -102 -66 -41 -26 -97 -62 -125
-80 -27 -18 -90 -54 -140 -80 -49 -27 -108 -58 -130 -71 -39 -22 -521 -262
-580 -289 -16 -8 -75 -32 -130 -55 -102 -42 -126 -52 -206 -89 -25 -12 -53
-21 -62 -21 -9 0 -18 -4 -22 -9 -3 -5 -20 -13 -38 -17 -17 -3 -45 -12 -62 -20
-52 -22 -307 -111 -385 -134 -41 -12 -93 -28 -115 -35 -38 -12 -116 -35 -235
-70 -30 -8 -75 -20 -100 -25 -46 -10 -121 -27 -225 -53 -91 -22 -238 -53 -425
-87 -30 -6 -91 -15 -135 -21 -44 -5 -120 -16 -170 -24 -49 -8 -144 -19 -210
-25 -66 -6 -163 -15 -215 -20 -159 -16 -836 -23 -1120 -12 -381 15 -831 65
-1172 131 -32 6 -84 16 -115 22 -242 46 -446 95 -603 144 -25 7 -79 23 -120
35 -110 32 -202 61 -225 71 -11 4 -36 12 -55 18 -38 11 -113 36 -145 50 -11 5
-45 17 -75 29 -112 41 -246 94 -286 113 -23 10 -44 19 -47 19 -4 0 -42 16 -84
36 -43 19 -87 39 -98 44 -139 60 -529 266 -645 340 -8 5 -53 32 -100 60 -138
82 -426 276 -545 367 -79 60 -76 58 -130 97 -22 17 -42 33 -45 36 -3 4 -30 26
-60 49 -276 216 -716 640 -946 912 -22 25 -60 70 -85 100 -93 109 -334 426
-424 558 -50 73 -231 354 -260 403 -5 9 -32 54 -59 100 -28 46 -66 112 -85
148 -19 36 -45 83 -57 105 -26 46 -279 554 -300 602 -8 18 -21 49 -29 68 -8
19 -21 50 -29 68 -38 83 -96 227 -96 239 0 7 -7 22 -15 32 -8 11 -15 27 -15
35 0 9 -7 29 -15 44 -8 15 -19 42 -24 60 -5 18 -19 57 -31 87 -12 30 -27 73
-35 95 -7 22 -24 72 -38 110 -21 60 -58 177 -113 355 -30 96 -112 407 -125
468 -5 24 -11 47 -14 52 -3 5 -12 40 -20 77 -7 38 -23 111 -35 163 -20 92 -36
174 -60 310 -6 36 -16 90 -22 120 -14 74 -33 196 -47 300 -6 47 -17 114 -22
150 -17 102 -46 379 -74 720 -38 454 -40 735 -40 5525 0 4791 2 5059 40 5515
28 339 57 618 74 720 5 36 16 103 22 150 19 140 47 308 74 445 7 39 16 88 20
110 14 93 92 430 140 610 15 55 31 116 36 135 9 41 33 127 53 190 8 25 30 99
51 165 20 66 41 131 47 145 6 14 14 39 19 55 7 27 32 97 75 210 8 22 20 54 25
72 5 18 16 45 24 60 8 15 15 35 15 44 0 8 7 24 15 35 8 10 15 25 15 32 0 8 6
28 14 45 8 18 33 77 56 132 130 310 339 732 495 997 6 9 23 41 39 70 15 29 34
60 42 69 8 8 14 18 14 22 0 3 13 25 28 49 16 24 66 102 111 173 45 72 107 164
136 205 30 41 67 93 82 115 42 61 301 394 342 441 20 23 61 70 91 104 230 265
571 599 830 814 52 43 116 96 141 117 46 39 253 192 349 259 28 19 73 51 100
70 72 51 390 253 430 272 14 6 32 17 40 24 8 6 51 31 95 54 44 24 105 57 135
73 90 49 257 130 425 206 39 18 84 38 100 46 17 7 55 23 85 35 30 12 69 27 85
35 17 8 57 24 90 36 33 12 69 25 80 30 45 19 288 100 415 139 41 13 93 28 115
35 111 34 227 65 315 85 19 4 62 14 95 23 33 8 96 22 140 32 44 9 100 22 125
27 25 6 81 16 125 23 102 17 203 33 285 46 128 22 402 51 698 75 281 22 1019
23 1229 0 82 -9 193 -20 248 -25 106 -11 271 -32 395 -51 74 -11 125 -20 250
-45 36 -7 92 -18 125 -25 33 -7 114 -26 180 -42 66 -17 136 -34 155 -38 106
-24 405 -112 520 -154 19 -7 71 -25 115 -41 135 -47 159 -55 192 -70 17 -8 38
-15 46 -15 9 0 18 -4 22 -9 3 -5 19 -13 36 -16 27 -6 54 -16 144 -55 28 -12
132 -58 180 -80 22 -10 72 -32 110 -50 68 -30 268 -130 445 -222 47 -24 140
-77 207 -116 67 -40 125 -72 129 -72 4 0 15 -6 23 -14 9 -7 36 -24 61 -37 25
-13 90 -54 145 -90 55 -36 145 -95 200 -131 55 -36 123 -83 152 -104 28 -21
61 -46 74 -54 12 -8 51 -38 88 -65 36 -28 84 -63 106 -77 22 -15 51 -38 65
-51 14 -12 70 -58 125 -102 55 -44 111 -89 125 -101 14 -12 48 -41 75 -64 49
-42 168 -149 292 -262 95 -88 325 -321 443 -449 58 -63 134 -145 170 -184 36
-38 101 -115 144 -170 44 -55 82 -102 86 -105 36 -28 377 -495 515 -705 54
-82 111 -170 128 -194 16 -25 33 -54 38 -65 5 -12 13 -28 19 -36 92 -139 342
-617 446 -855 37 -82 76 -172 88 -200 27 -60 58 -135 79 -190 9 -22 31 -80 50
-130 20 -49 39 -101 42 -115 4 -14 11 -29 15 -35 4 -5 26 -71 49 -145 23 -74
49 -150 57 -168 8 -18 14 -42 14 -53 0 -11 5 -30 11 -41 6 -12 16 -41 23 -67
8 -35 17 -47 36 -52 14 -4 738 -7 1610 -8 1190 -1 1589 2 1598 11 13 13 7 86
-14 141 -8 20 -14 50 -14 65 0 16 -6 48 -14 73 -8 24 -22 76 -31 114 -38 159
-44 183 -60 245 -69 275 -116 446 -150 545 -8 22 -19 58 -24 80 -5 22 -14 54
-20 70 -30 85 -74 214 -81 240 -5 17 -26 80 -48 140 -21 61 -54 153 -72 205
-18 52 -36 99 -41 105 -5 5 -9 15 -9 23 0 8 -6 28 -14 45 -34 76 -56 130 -56
139 0 6 -6 24 -14 41 -8 18 -51 116 -95 219 -113 264 -148 338 -302 643 -159
316 -280 540 -359 665 -5 8 -25 42 -44 75 -19 33 -54 90 -78 127 -24 37 -63
100 -88 140 -70 114 -247 376 -325 483 -97 132 -286 384 -297 396 -7 8 -26 32
-43 54 -16 22 -52 67 -80 101 -27 33 -79 96 -115 140 -304 369 -705 787 -1065
1109 -49 44 -96 87 -105 95 -9 8 -40 35 -70 60 -30 25 -73 61 -95 81 -22 19
-85 71 -140 115 -55 43 -105 83 -111 89 -24 22 -350 268 -421 318 -29 21 -77
54 -105 74 -73 51 -298 201 -388 258 -41 26 -86 55 -100 64 -34 21 -37 23
-207 123 -81 47 -164 96 -183 107 -19 11 -48 27 -65 35 -16 8 -75 40 -130 70
-156 86 -516 264 -715 353 -30 13 -68 30 -85 38 -16 7 -75 32 -130 55 -55 23
-113 48 -130 55 -30 14 -174 70 -275 108 -30 11 -69 26 -87 33 -17 8 -35 14
-39 14 -10 0 -110 38 -136 51 -10 5 -34 13 -55 18 -50 13 -131 40 -170 57 -17
8 -38 14 -48 14 -9 0 -28 6 -43 14 -15 7 -45 17 -67 21 -22 4 -44 10 -50 15
-5 4 -30 12 -55 18 -25 6 -76 20 -115 32 -100 30 -285 80 -385 104 -53 13 -97
24 -190 47 -25 6 -74 16 -110 24 -80 16 -155 32 -240 51 -36 8 -90 18 -120 23
-30 5 -82 14 -115 20 -222 43 -246 47 -485 76 -63 8 -127 17 -142 20 -31 7
-264 31 -433 45 -66 6 -194 17 -285 26 -188 17 -1208 27 -1535 15z"/>
</g>
</svg>
